<svg width="251" height="13" viewBox="0 0 251 13" fill="none" xmlns="http://www.w3.org/2000/svg">
<path d="M230.609 1.51225C225.19 1.2287 219.678 0.945157 214.165 0.66161C212.39 0.567094 210.522 0.567094 208.746 0.472579C204.822 0.378063 200.898 0.283547 196.974 0.189031C194.825 0.0945157 192.583 0.0945157 190.434 0C189.78 0 189.126 0 188.565 0C187.164 0 185.763 0 184.268 0C177.821 0 171.374 0 164.927 0C163.433 0 161.844 0 160.349 0.0945157C156.519 0.189031 152.781 0.189032 148.951 0.283547C144.653 0.378063 140.355 0.378063 136.057 0.472579C129.143 0.66161 122.136 0.850642 115.222 1.03967C111.205 1.13419 107.187 1.2287 103.17 1.32322C96.2558 1.60677 89.3419 1.89031 82.4281 2.17386C78.5974 2.36289 74.8602 2.45741 71.0295 2.64644C63.8353 3.11902 56.6412 3.49708 49.447 3.87515C45.6163 4.06418 41.7857 4.25321 37.955 4.53676C30.8543 5.10385 23.6601 5.76546 16.5594 6.42707C15.0645 6.52159 13.4762 6.71062 11.8878 6.80513C8.89806 7.08868 5.81484 7.56126 2.73163 7.93932C2.54476 7.93932 2.3579 8.03384 2.17104 8.03384C1.79732 8.03384 1.51703 8.22287 1.23673 8.50642C0.769579 8.979 0.582718 9.54609 0.582718 10.1132C0.582718 10.6803 0.769579 11.2474 1.23673 11.6254C1.61046 12.0035 2.26447 12.287 2.73163 12.287C6.46886 11.909 10.1127 11.4364 13.8499 11.0583C17.3068 10.7748 20.7638 10.4912 24.2207 10.2077C27.9579 9.92415 31.6952 9.54609 35.5258 9.26254C37.0207 9.16803 38.5156 8.979 40.1039 8.88448C45.9901 8.60093 51.7828 8.22287 57.6689 7.93932C61.3127 7.75029 64.9565 7.56126 68.6003 7.37223C70.0952 7.27771 71.5901 7.1832 73.085 7.08868C78.8777 6.80513 84.6704 6.6161 90.4631 6.33255C94.0135 6.23804 97.4704 6.04901 101.021 5.95449C102.235 5.95449 103.357 5.85998 104.571 5.85998C110.831 5.67094 117.091 5.57643 123.351 5.3874C126.808 5.29288 130.358 5.19837 133.815 5.10385C135.03 5.10385 136.338 5.00933 137.552 5.00933C143.999 4.91482 150.446 4.91482 156.986 4.8203C161.003 4.8203 165.021 4.72579 169.038 4.72579C175.859 4.72579 182.773 4.72579 189.593 4.8203C190.901 4.8203 192.303 4.91482 193.611 4.91482C197.441 5.00933 201.179 5.10385 205.009 5.29288C207.812 5.3874 210.709 5.48191 213.511 5.57643C215.567 5.67095 217.529 5.76546 219.584 5.85998C225.471 6.14352 231.45 6.52159 237.336 6.89965C238.831 6.99416 240.326 7.08868 241.821 7.1832C243.409 7.27771 245.091 7.37223 246.679 7.56126C246.96 7.56126 247.147 7.65578 247.427 7.75029C248.081 7.84481 248.641 7.84481 249.202 7.46674C249.763 7.1832 250.136 6.6161 250.323 6.04901C250.697 4.8203 249.949 3.49708 248.641 3.11902C247.52 2.83547 246.399 2.74096 245.371 2.55192C244.624 2.45741 243.876 2.36289 243.129 2.36289C241.634 2.17386 240.139 2.17386 238.738 1.98483C236.122 1.89031 233.319 1.70128 230.609 1.51225Z" fill="#151515"/>
</svg>
